<mxfile host="app.diagrams.net" modified="2022-10-16T01:08:16.614Z" agent="5.0 (Windows NT 10.0; Win64; x64) AppleWebKit/537.36 (KHTML, like Gecko) Chrome/106.0.0.0 Safari/537.36" etag="wY0fUxATgXH79MM5FE29" version="20.2.7" type="github" pages="2">
  <diagram id="OqgKt9VJ2bdUbjUf5wzH" name="ThreadLocal">
    <mxGraphModel dx="1209" dy="818" grid="1" gridSize="10" guides="1" tooltips="1" connect="1" arrows="1" fold="1" page="1" pageScale="1" pageWidth="827" pageHeight="1169" math="0" shadow="0">
      <root>
        <mxCell id="0" />
        <mxCell id="1" parent="0" />
        <mxCell id="0cfR9RZ5VSDmsnLJI0CJ-1" value="" style="rounded=1;whiteSpace=wrap;html=1;" parent="1" vertex="1">
          <mxGeometry x="90" y="200" width="570" height="200" as="geometry" />
        </mxCell>
        <mxCell id="0cfR9RZ5VSDmsnLJI0CJ-2" value="&lt;font style=&quot;font-size: 21px&quot;&gt;Thread&lt;/font&gt;" style="text;html=1;align=center;verticalAlign=middle;resizable=0;points=[];autosize=1;strokeColor=none;fillColor=none;" parent="1" vertex="1">
          <mxGeometry x="120" y="240" width="80" height="20" as="geometry" />
        </mxCell>
        <mxCell id="0cfR9RZ5VSDmsnLJI0CJ-3" value="&lt;pre style=&quot;text-align: left ; font-family: &amp;#34;jetbrains mono medium&amp;#34; , monospace ; font-size: 12pt&quot;&gt;&lt;span style=&quot;background-color: rgb(255 , 255 , 255)&quot;&gt;Thread内部成员变量(线程独有):&lt;/span&gt;&lt;/pre&gt;&lt;pre style=&quot;color: rgb(187 , 187 , 187) ; font-family: &amp;#34;jetbrains mono medium&amp;#34; , monospace ; font-size: 12pt&quot;&gt;&lt;span style=&quot;background-color: rgb(255 , 255 , 255)&quot;&gt;&lt;span style=&quot;color: rgb(229 , 192 , 123)&quot;&gt;ThreadLocal&lt;/span&gt;.&lt;span style=&quot;color: rgb(229 , 192 , 123)&quot;&gt;ThreadLocalMap &lt;/span&gt;&lt;span style=&quot;color: rgb(239 , 89 , 111)&quot;&gt;threadLocals &lt;/span&gt;= &lt;span style=&quot;color: rgb(213 , 95 , 222) ; font-style: italic&quot;&gt;null&lt;/span&gt;;&lt;/span&gt;&lt;/pre&gt;" style="rounded=1;whiteSpace=wrap;html=1;fontSize=21;" parent="1" vertex="1">
          <mxGeometry x="130" y="300" width="430" height="60" as="geometry" />
        </mxCell>
        <mxCell id="0cfR9RZ5VSDmsnLJI0CJ-4" value="" style="rounded=1;whiteSpace=wrap;html=1;labelBackgroundColor=#FFFFFF;fontSize=21;fontColor=#000000;" parent="1" vertex="1">
          <mxGeometry x="90" y="440" width="830" height="480" as="geometry" />
        </mxCell>
        <mxCell id="0cfR9RZ5VSDmsnLJI0CJ-5" value="ThreadLocal" style="text;html=1;align=center;verticalAlign=middle;resizable=0;points=[];autosize=1;strokeColor=none;fillColor=none;fontSize=21;fontColor=#000000;" parent="1" vertex="1">
          <mxGeometry x="120" y="470" width="130" height="30" as="geometry" />
        </mxCell>
        <mxCell id="0cfR9RZ5VSDmsnLJI0CJ-6" value="" style="rounded=1;whiteSpace=wrap;html=1;labelBackgroundColor=#FFFFFF;fontSize=21;fontColor=#000000;" parent="1" vertex="1">
          <mxGeometry x="130" y="525" width="750" height="345" as="geometry" />
        </mxCell>
        <mxCell id="0cfR9RZ5VSDmsnLJI0CJ-7" value="&lt;pre style=&quot;color: rgb(187 , 187 , 187) ; font-family: &amp;#34;jetbrains mono medium&amp;#34; , monospace ; font-size: 12pt&quot;&gt;&lt;span style=&quot;background-color: rgb(255 , 255 , 255)&quot;&gt;&lt;span style=&quot;color: rgb(213 , 95 , 222) ; font-style: italic&quot;&gt;static class &lt;/span&gt;&lt;span style=&quot;color: rgb(229 , 192 , 123)&quot;&gt;ThreadLocalMap&lt;/span&gt;&lt;/span&gt;&lt;/pre&gt;" style="text;html=1;align=center;verticalAlign=middle;resizable=0;points=[];autosize=1;strokeColor=none;fillColor=none;fontSize=21;fontColor=#000000;" parent="1" vertex="1">
          <mxGeometry x="150" y="525" width="230" height="60" as="geometry" />
        </mxCell>
        <mxCell id="0cfR9RZ5VSDmsnLJI0CJ-10" value="" style="group" parent="1" vertex="1" connectable="0">
          <mxGeometry x="180" y="550" width="670" height="305" as="geometry" />
        </mxCell>
        <mxCell id="0cfR9RZ5VSDmsnLJI0CJ-8" value="" style="rounded=1;whiteSpace=wrap;html=1;labelBackgroundColor=#FFFFFF;fontSize=21;fontColor=#000000;" parent="0cfR9RZ5VSDmsnLJI0CJ-10" vertex="1">
          <mxGeometry y="35" width="670" height="210" as="geometry" />
        </mxCell>
        <mxCell id="0cfR9RZ5VSDmsnLJI0CJ-9" value="&lt;pre style=&quot;color: rgb(187 , 187 , 187) ; font-family: &amp;#34;jetbrains mono medium&amp;#34; , monospace ; font-size: 12pt&quot;&gt;&lt;span style=&quot;background-color: rgb(255 , 255 , 255)&quot;&gt;&lt;span style=&quot;color: rgb(213 , 95 , 222) ; font-style: italic&quot;&gt;static class &lt;/span&gt;&lt;span style=&quot;color: rgb(229 , 192 , 123)&quot;&gt;Entry &lt;/span&gt;&lt;span style=&quot;color: rgb(213 , 95 , 222) ; font-style: italic&quot;&gt;extends &lt;/span&gt;&lt;span style=&quot;color: rgb(229 , 192 , 123)&quot;&gt;WeakReference&lt;/span&gt;&amp;lt;&lt;span style=&quot;color: rgb(229 , 192 , 123)&quot;&gt;ThreadLocal&lt;/span&gt;&amp;lt;?&amp;gt;&amp;gt;{&lt;/span&gt;&lt;/pre&gt;&lt;pre style=&quot;color: rgb(187 , 187 , 187) ; font-family: &amp;#34;jetbrains mono medium&amp;#34; , monospace ; font-size: 12pt&quot;&gt;&lt;span style=&quot;background-color: rgb(255 , 255 , 255)&quot;&gt;    &lt;span style=&quot;color: rgb(92 , 99 , 112) ; font-style: italic&quot;&gt;/** The value associated with this ThreadLocal. */&lt;br&gt;&lt;/span&gt;&lt;span style=&quot;color: rgb(92 , 99 , 112) ; font-style: italic&quot;&gt;    &lt;/span&gt;&lt;span style=&quot;color: rgb(229 , 192 , 123)&quot;&gt;Object &lt;/span&gt;&lt;span style=&quot;color: rgb(239 , 89 , 111)&quot;&gt;value&lt;/span&gt;;&lt;br&gt;&lt;br&gt;    &lt;span style=&quot;color: rgb(97 , 175 , 239)&quot;&gt;Entry&lt;/span&gt;(&lt;span style=&quot;color: rgb(229 , 192 , 123)&quot;&gt;ThreadLocal&lt;/span&gt;&amp;lt;?&amp;gt; &lt;span style=&quot;color: rgb(209 , 154 , 102)&quot;&gt;k&lt;/span&gt;, &lt;span style=&quot;color: rgb(229 , 192 , 123)&quot;&gt;Object &lt;/span&gt;&lt;span style=&quot;color: rgb(209 , 154 , 102)&quot;&gt;v&lt;/span&gt;) {&lt;br&gt;        &lt;span style=&quot;color: rgb(213 , 95 , 222) ; font-style: italic&quot;&gt;super&lt;/span&gt;(&lt;span style=&quot;color: rgb(209 , 154 , 102)&quot;&gt;k&lt;/span&gt;);&lt;br&gt;        &lt;span style=&quot;color: rgb(239 , 89 , 111)&quot;&gt;value &lt;/span&gt;= &lt;span style=&quot;color: rgb(209 , 154 , 102)&quot;&gt;v&lt;/span&gt;;&lt;br&gt;    }&lt;br&gt;}&lt;/span&gt;&lt;/pre&gt;" style="text;html=1;align=left;verticalAlign=middle;resizable=0;points=[];autosize=1;strokeColor=none;fillColor=none;fontSize=21;fontColor=#000000;" parent="0cfR9RZ5VSDmsnLJI0CJ-10" vertex="1">
          <mxGeometry x="10" width="470" height="280" as="geometry" />
        </mxCell>
        <mxCell id="0cfR9RZ5VSDmsnLJI0CJ-11" value="&lt;pre style=&quot;color: rgb(187 , 187 , 187) ; font-family: &amp;#34;jetbrains mono medium&amp;#34; , monospace ; font-size: 12pt&quot;&gt;&lt;span style=&quot;background-color: rgb(255 , 255 , 255)&quot;&gt;&lt;span style=&quot;color: rgb(213 , 95 , 222) ; font-style: italic&quot;&gt;private &lt;/span&gt;&lt;span style=&quot;color: rgb(229 , 192 , 123)&quot;&gt;Entry&lt;/span&gt;[] &lt;span style=&quot;color: rgb(239 , 89 , 111)&quot;&gt;table&lt;/span&gt;;&lt;/span&gt;&lt;/pre&gt;" style="text;html=1;align=center;verticalAlign=middle;resizable=0;points=[];autosize=1;strokeColor=none;fillColor=none;fontSize=21;fontColor=#000000;" parent="0cfR9RZ5VSDmsnLJI0CJ-10" vertex="1">
          <mxGeometry y="245" width="190" height="60" as="geometry" />
        </mxCell>
      </root>
    </mxGraphModel>
  </diagram>
  <diagram id="t0IQnX7IWN1fOZWbCcb7" name="SpringBean">
    <mxGraphModel dx="2036" dy="818" grid="1" gridSize="10" guides="1" tooltips="1" connect="1" arrows="1" fold="1" page="1" pageScale="1" pageWidth="827" pageHeight="1169" math="0" shadow="0">
      <root>
        <mxCell id="0" />
        <mxCell id="1" parent="0" />
        <mxCell id="W9X3lT7KzWbs6AVHg-TH-15" style="edgeStyle=orthogonalEdgeStyle;rounded=0;orthogonalLoop=1;jettySize=auto;html=1;exitX=0.5;exitY=1;exitDx=0;exitDy=0;entryX=0.5;entryY=0;entryDx=0;entryDy=0;fontSize=18;" parent="1" source="W9X3lT7KzWbs6AVHg-TH-1" target="W9X3lT7KzWbs6AVHg-TH-2" edge="1">
          <mxGeometry relative="1" as="geometry" />
        </mxCell>
        <mxCell id="W9X3lT7KzWbs6AVHg-TH-1" value="" style="ellipse;whiteSpace=wrap;html=1;" parent="1" vertex="1">
          <mxGeometry x="238.75" y="20" width="90" height="50" as="geometry" />
        </mxCell>
        <mxCell id="W9X3lT7KzWbs6AVHg-TH-16" style="edgeStyle=orthogonalEdgeStyle;rounded=0;orthogonalLoop=1;jettySize=auto;html=1;exitX=0.5;exitY=1;exitDx=0;exitDy=0;entryX=0.5;entryY=0;entryDx=0;entryDy=0;fontSize=18;" parent="1" source="W9X3lT7KzWbs6AVHg-TH-2" target="W9X3lT7KzWbs6AVHg-TH-3" edge="1">
          <mxGeometry relative="1" as="geometry" />
        </mxCell>
        <mxCell id="W9X3lT7KzWbs6AVHg-TH-2" value="&lt;font style=&quot;font-size: 18px;&quot;&gt;postProcessBeforeInstantiation&lt;/font&gt;" style="rounded=1;whiteSpace=wrap;html=1;fillColor=#d5e8d4;strokeColor=#82b366;" parent="1" vertex="1">
          <mxGeometry x="130" y="100" width="307.5" height="60" as="geometry" />
        </mxCell>
        <mxCell id="W9X3lT7KzWbs6AVHg-TH-17" style="edgeStyle=orthogonalEdgeStyle;rounded=0;orthogonalLoop=1;jettySize=auto;html=1;exitX=0.5;exitY=1;exitDx=0;exitDy=0;entryX=0.5;entryY=0;entryDx=0;entryDy=0;fontSize=18;" parent="1" source="W9X3lT7KzWbs6AVHg-TH-3" target="W9X3lT7KzWbs6AVHg-TH-4" edge="1">
          <mxGeometry relative="1" as="geometry" />
        </mxCell>
        <mxCell id="W9X3lT7KzWbs6AVHg-TH-3" value="&lt;font style=&quot;font-size: 18px;&quot;&gt;postProcessAfterInstantiation&lt;/font&gt;" style="rounded=1;whiteSpace=wrap;html=1;fillColor=#d5e8d4;strokeColor=#82b366;" parent="1" vertex="1">
          <mxGeometry x="130" y="200" width="307.5" height="60" as="geometry" />
        </mxCell>
        <mxCell id="W9X3lT7KzWbs6AVHg-TH-18" style="edgeStyle=orthogonalEdgeStyle;rounded=0;orthogonalLoop=1;jettySize=auto;html=1;exitX=0.5;exitY=1;exitDx=0;exitDy=0;entryX=0.5;entryY=0;entryDx=0;entryDy=0;fontSize=18;" parent="1" source="W9X3lT7KzWbs6AVHg-TH-4" target="W9X3lT7KzWbs6AVHg-TH-5" edge="1">
          <mxGeometry relative="1" as="geometry" />
        </mxCell>
        <mxCell id="W9X3lT7KzWbs6AVHg-TH-4" value="&lt;font style=&quot;font-size: 18px;&quot;&gt;postProcessProperties&lt;/font&gt;" style="rounded=1;whiteSpace=wrap;html=1;fillColor=#d5e8d4;strokeColor=#82b366;" parent="1" vertex="1">
          <mxGeometry x="130" y="300" width="307.5" height="60" as="geometry" />
        </mxCell>
        <mxCell id="W9X3lT7KzWbs6AVHg-TH-19" style="edgeStyle=orthogonalEdgeStyle;rounded=0;orthogonalLoop=1;jettySize=auto;html=1;exitX=0.5;exitY=1;exitDx=0;exitDy=0;entryX=0.5;entryY=0;entryDx=0;entryDy=0;fontSize=18;" parent="1" source="W9X3lT7KzWbs6AVHg-TH-5" target="W9X3lT7KzWbs6AVHg-TH-6" edge="1">
          <mxGeometry relative="1" as="geometry" />
        </mxCell>
        <mxCell id="W9X3lT7KzWbs6AVHg-TH-5" value="&lt;font style=&quot;font-size: 18px;&quot;&gt;BeanNameAware&lt;/font&gt;" style="rounded=1;whiteSpace=wrap;html=1;" parent="1" vertex="1">
          <mxGeometry x="130" y="400" width="307.5" height="60" as="geometry" />
        </mxCell>
        <mxCell id="W9X3lT7KzWbs6AVHg-TH-20" style="edgeStyle=orthogonalEdgeStyle;rounded=0;orthogonalLoop=1;jettySize=auto;html=1;exitX=0.5;exitY=1;exitDx=0;exitDy=0;entryX=0.5;entryY=0;entryDx=0;entryDy=0;fontSize=18;" parent="1" source="W9X3lT7KzWbs6AVHg-TH-6" target="W9X3lT7KzWbs6AVHg-TH-7" edge="1">
          <mxGeometry relative="1" as="geometry" />
        </mxCell>
        <mxCell id="W9X3lT7KzWbs6AVHg-TH-6" value="&lt;font style=&quot;font-size: 18px;&quot;&gt;postProcessBeforeInitialization&lt;/font&gt;" style="rounded=1;whiteSpace=wrap;html=1;fillColor=#d5e8d4;strokeColor=#82b366;" parent="1" vertex="1">
          <mxGeometry x="130" y="500" width="307.5" height="60" as="geometry" />
        </mxCell>
        <mxCell id="W9X3lT7KzWbs6AVHg-TH-21" style="edgeStyle=orthogonalEdgeStyle;rounded=0;orthogonalLoop=1;jettySize=auto;html=1;exitX=0.5;exitY=1;exitDx=0;exitDy=0;entryX=0.5;entryY=0;entryDx=0;entryDy=0;fontSize=18;" parent="1" source="W9X3lT7KzWbs6AVHg-TH-7" target="W9X3lT7KzWbs6AVHg-TH-8" edge="1">
          <mxGeometry relative="1" as="geometry" />
        </mxCell>
        <mxCell id="W9X3lT7KzWbs6AVHg-TH-7" value="&lt;font style=&quot;font-size: 18px;&quot;&gt;@postConstruct(JSR250)&lt;/font&gt;" style="rounded=1;whiteSpace=wrap;html=1;" parent="1" vertex="1">
          <mxGeometry x="130" y="600" width="307.5" height="60" as="geometry" />
        </mxCell>
        <mxCell id="W9X3lT7KzWbs6AVHg-TH-22" style="edgeStyle=orthogonalEdgeStyle;rounded=0;orthogonalLoop=1;jettySize=auto;html=1;exitX=0.5;exitY=1;exitDx=0;exitDy=0;entryX=0.5;entryY=0;entryDx=0;entryDy=0;fontSize=18;" parent="1" source="W9X3lT7KzWbs6AVHg-TH-8" target="W9X3lT7KzWbs6AVHg-TH-9" edge="1">
          <mxGeometry relative="1" as="geometry" />
        </mxCell>
        <mxCell id="W9X3lT7KzWbs6AVHg-TH-8" value="&lt;font style=&quot;font-size: 18px;&quot;&gt;afterPropertiesSet&lt;/font&gt;" style="rounded=1;whiteSpace=wrap;html=1;" parent="1" vertex="1">
          <mxGeometry x="130" y="700" width="307.5" height="60" as="geometry" />
        </mxCell>
        <mxCell id="W9X3lT7KzWbs6AVHg-TH-23" style="edgeStyle=orthogonalEdgeStyle;rounded=0;orthogonalLoop=1;jettySize=auto;html=1;exitX=0.5;exitY=1;exitDx=0;exitDy=0;entryX=0.5;entryY=0;entryDx=0;entryDy=0;fontSize=18;" parent="1" source="W9X3lT7KzWbs6AVHg-TH-9" target="W9X3lT7KzWbs6AVHg-TH-10" edge="1">
          <mxGeometry relative="1" as="geometry" />
        </mxCell>
        <mxCell id="W9X3lT7KzWbs6AVHg-TH-9" value="&lt;font style=&quot;font-size: 18px;&quot;&gt;postProcessAfterInitialization&lt;/font&gt;" style="rounded=1;whiteSpace=wrap;html=1;fillColor=#d5e8d4;strokeColor=#82b366;" parent="1" vertex="1">
          <mxGeometry x="130" y="800" width="307.5" height="60" as="geometry" />
        </mxCell>
        <mxCell id="W9X3lT7KzWbs6AVHg-TH-24" style="edgeStyle=orthogonalEdgeStyle;rounded=0;orthogonalLoop=1;jettySize=auto;html=1;exitX=0.5;exitY=1;exitDx=0;exitDy=0;entryX=0.5;entryY=0;entryDx=0;entryDy=0;fontSize=18;" parent="1" source="W9X3lT7KzWbs6AVHg-TH-10" target="W9X3lT7KzWbs6AVHg-TH-11" edge="1">
          <mxGeometry relative="1" as="geometry" />
        </mxCell>
        <mxCell id="W9X3lT7KzWbs6AVHg-TH-10" value="&lt;font style=&quot;font-size: 18px;&quot;&gt;@PreDestroy(JSR250)&lt;/font&gt;" style="rounded=1;whiteSpace=wrap;html=1;" parent="1" vertex="1">
          <mxGeometry x="130" y="900" width="307.5" height="60" as="geometry" />
        </mxCell>
        <mxCell id="3SPsXS9Ipl7m4Ttkx4jW-2" style="edgeStyle=orthogonalEdgeStyle;rounded=0;orthogonalLoop=1;jettySize=auto;html=1;exitX=0.5;exitY=1;exitDx=0;exitDy=0;entryX=0.5;entryY=0;entryDx=0;entryDy=0;fontSize=18;" edge="1" parent="1" source="W9X3lT7KzWbs6AVHg-TH-11" target="3SPsXS9Ipl7m4Ttkx4jW-1">
          <mxGeometry relative="1" as="geometry" />
        </mxCell>
        <mxCell id="W9X3lT7KzWbs6AVHg-TH-11" value="&lt;font style=&quot;font-size: 18px;&quot;&gt;destroy&lt;/font&gt;" style="rounded=1;whiteSpace=wrap;html=1;" parent="1" vertex="1">
          <mxGeometry x="130" y="1000" width="307.5" height="60" as="geometry" />
        </mxCell>
        <mxCell id="W9X3lT7KzWbs6AVHg-TH-12" value="InitializingBean" style="shape=callout;whiteSpace=wrap;html=1;perimeter=calloutPerimeter;fontSize=18;size=80;position=0.33;base=20;direction=south;position2=0.5;" parent="1" vertex="1">
          <mxGeometry x="440" y="700" width="310" height="60" as="geometry" />
        </mxCell>
        <mxCell id="W9X3lT7KzWbs6AVHg-TH-13" value="" style="ellipse;whiteSpace=wrap;html=1;fontSize=18;fillColor=#f8cecc;strokeColor=#b85450;" parent="1" vertex="1">
          <mxGeometry x="276.25" y="470" width="15" height="10" as="geometry" />
        </mxCell>
        <mxCell id="W9X3lT7KzWbs6AVHg-TH-25" value="1.setBeanFactory&lt;br&gt;2.setApplicationContext" style="shape=callout;whiteSpace=wrap;html=1;perimeter=calloutPerimeter;fontSize=18;size=170;position=0.42;base=10;direction=south;position2=0.58;align=left;spacingLeft=120;" parent="1" vertex="1">
          <mxGeometry x="291.25" y="440" width="500" height="60" as="geometry" />
        </mxCell>
        <mxCell id="W9X3lT7KzWbs6AVHg-TH-26" value="&lt;span style=&quot;font-size: 18px;&quot;&gt;InstantiationAwareBeanPostProcessor extends BeanPostProcessor&lt;br&gt;&lt;/span&gt;&lt;br&gt;&lt;div style=&quot;text-align: left;&quot;&gt;&lt;span style=&quot;font-size: 18px; background-color: initial;&quot;&gt;1.对所有bean均生效&lt;/span&gt;&lt;/div&gt;&lt;div style=&quot;text-align: left;&quot;&gt;&lt;span style=&quot;font-size: 18px; background-color: initial;&quot;&gt;2.postProcessAfterInstantiation返回值(Boolean)决定是否执行后续的&lt;/span&gt;&lt;span style=&quot;background-color: initial; font-size: 18px;&quot;&gt;postProcessProperties&lt;/span&gt;&lt;/div&gt;&lt;div style=&quot;text-align: left;&quot;&gt;&lt;span style=&quot;background-color: initial; font-size: 18px;&quot;&gt;3.**Initialization方法返回null时不再执行后续方法&lt;/span&gt;&lt;/div&gt;" style="rounded=1;whiteSpace=wrap;html=1;fillColor=#d5e8d4;strokeColor=#82b366;" parent="1" vertex="1">
          <mxGeometry x="-380" y="150" width="390" height="190" as="geometry" />
        </mxCell>
        <mxCell id="W9X3lT7KzWbs6AVHg-TH-28" value="在属性注入时阶段触发，@Autowired,@Resource等注解原理基于此方法实现" style="shape=callout;whiteSpace=wrap;html=1;perimeter=calloutPerimeter;fontSize=18;size=50;position=0.33;base=20;direction=south;position2=0.5;" parent="1" vertex="1">
          <mxGeometry x="441.25" y="290" width="350" height="80" as="geometry" />
        </mxCell>
        <mxCell id="3SPsXS9Ipl7m4Ttkx4jW-1" value="" style="ellipse;whiteSpace=wrap;html=1;" vertex="1" parent="1">
          <mxGeometry x="238.75" y="1090" width="90" height="50" as="geometry" />
        </mxCell>
        <mxCell id="3SPsXS9Ipl7m4Ttkx4jW-3" value="DisposableBean" style="shape=callout;whiteSpace=wrap;html=1;perimeter=calloutPerimeter;fontSize=18;size=80;position=0.33;base=20;direction=south;position2=0.5;" vertex="1" parent="1">
          <mxGeometry x="441.25" y="1000" width="310" height="60" as="geometry" />
        </mxCell>
      </root>
    </mxGraphModel>
  </diagram>
</mxfile>
